<svg width="98" height="98" viewBox="0 0 98 98" fill="none" xmlns="http://www.w3.org/2000/svg">
<path fill-rule="evenodd" clip-rule="evenodd" d="M0.666016 24.8333C0.666016 11.4864 11.4858 0.666656 24.8327 0.666656H73.166C86.5129 0.666656 97.3327 11.4864 97.3327 24.8333V73.1667C97.3327 76.6821 96.5821 80.0222 95.2324 83.0355L96.9513 71.0033C97.1883 69.3438 96.5486 67.6799 95.2607 66.6067L74.4362 49.2529C70.9794 46.3723 65.8965 46.6029 62.7147 49.7846L38.6006 73.8988C36.3355 76.1638 32.6632 76.1638 30.3981 73.8988L25.2107 68.7114C22.2035 65.7041 17.4629 65.3118 14.0021 67.7837L5.1067 74.1376C3.83652 75.0449 3.08268 76.5097 3.08268 78.0706V82.927C3.08268 83.2655 3.11815 83.5997 3.18679 83.9249C1.57341 80.685 0.666016 77.0318 0.666016 73.1667V24.8333ZM83.9828 93.9965L93.2923 86.549C88.961 93.05 81.5637 97.3333 73.166 97.3333H24.8327C16.4263 97.3333 9.02249 93.0412 4.69305 86.5289C4.75912 86.588 4.82701 86.6455 4.89666 86.7012L13.973 93.9622C14.7494 94.5834 15.6985 94.9499 16.6909 95.012L53.481 97.3113C53.7151 97.326 53.9501 97.3235 54.1839 97.3041L81.3649 95.039C82.3217 94.9592 83.2331 94.5963 83.9828 93.9965ZM29.666 39.3333C24.3273 39.3333 19.9994 35.0054 19.9994 29.6667C19.9994 24.3279 24.3273 20 29.666 20C35.0048 20 39.3327 24.3279 39.3327 29.6667C39.3327 35.0054 35.0048 39.3333 29.666 39.3333Z" fill="#64748B"/>
</svg>
